<mxfile host="app.diagrams.net" modified="2021-05-11T21:07:46.110Z" agent="5.0 (Windows NT 10.0; Win64; x64) AppleWebKit/537.36 (KHTML, like Gecko) Chrome/90.0.4430.93 Safari/537.36" etag="KucPF6SNhn6r5fXDq2rK" version="14.6.11" type="github">
  <diagram id="DA_NBnS7M06SAfDr4xLh" name="Page-1">
    <mxGraphModel dx="804" dy="465" grid="1" gridSize="10" guides="1" tooltips="1" connect="1" arrows="1" fold="1" page="1" pageScale="1" pageWidth="827" pageHeight="1169" math="0" shadow="0">
      <root>
        <mxCell id="0" />
        <mxCell id="1" parent="0" />
        <mxCell id="nswOoWmhiUc7NQjcE58l-1" value="Susceptible" style="rounded=0;whiteSpace=wrap;html=1;" parent="1" vertex="1">
          <mxGeometry x="300" y="40" width="120" height="60" as="geometry" />
        </mxCell>
        <mxCell id="nswOoWmhiUc7NQjcE58l-2" value="Infección" style="rounded=0;whiteSpace=wrap;html=1;" parent="1" vertex="1">
          <mxGeometry x="510" y="40" width="120" height="60" as="geometry" />
        </mxCell>
        <mxCell id="nswOoWmhiUc7NQjcE58l-5" value="" style="endArrow=classic;html=1;strokeWidth=3;" parent="1" edge="1">
          <mxGeometry width="50" height="50" relative="1" as="geometry">
            <mxPoint x="430" y="80" as="sourcePoint" />
            <mxPoint x="499" y="80" as="targetPoint" />
          </mxGeometry>
        </mxCell>
        <mxCell id="nswOoWmhiUc7NQjcE58l-7" value="Susceptible" style="rounded=0;whiteSpace=wrap;html=1;fillColor=#fff2cc;strokeColor=#d6b656;" parent="1" vertex="1">
          <mxGeometry x="300" y="160" width="120" height="60" as="geometry" />
        </mxCell>
        <mxCell id="nswOoWmhiUc7NQjcE58l-8" value="Infección" style="rounded=0;whiteSpace=wrap;html=1;fillColor=#f8cecc;strokeColor=#b85450;" parent="1" vertex="1">
          <mxGeometry x="530" y="160" width="120" height="60" as="geometry" />
        </mxCell>
        <mxCell id="nswOoWmhiUc7NQjcE58l-9" value="" style="endArrow=classic;html=1;strokeWidth=2;" parent="1" edge="1">
          <mxGeometry width="50" height="50" relative="1" as="geometry">
            <mxPoint x="440" y="189.5" as="sourcePoint" />
            <mxPoint x="519" y="189.5" as="targetPoint" />
          </mxGeometry>
        </mxCell>
        <mxCell id="nswOoWmhiUc7NQjcE58l-10" value="" style="endArrow=classic;html=1;entryX=0.575;entryY=1.05;entryDx=0;entryDy=0;entryPerimeter=0;" parent="1" target="nswOoWmhiUc7NQjcE58l-7" edge="1">
          <mxGeometry width="50" height="50" relative="1" as="geometry">
            <mxPoint x="589.5" y="220" as="sourcePoint" />
            <mxPoint x="360" y="300" as="targetPoint" />
            <Array as="points">
              <mxPoint x="590" y="300" />
              <mxPoint x="370" y="300" />
            </Array>
          </mxGeometry>
        </mxCell>
        <mxCell id="nswOoWmhiUc7NQjcE58l-12" value="SIS" style="text;html=1;strokeColor=none;fillColor=none;align=center;verticalAlign=middle;whiteSpace=wrap;rounded=0;" parent="1" vertex="1">
          <mxGeometry x="450" y="260" width="40" height="20" as="geometry" />
        </mxCell>
        <mxCell id="nswOoWmhiUc7NQjcE58l-14" value="SI" style="text;html=1;strokeColor=none;fillColor=none;align=center;verticalAlign=middle;whiteSpace=wrap;rounded=0;" parent="1" vertex="1">
          <mxGeometry x="440" y="100" width="40" height="20" as="geometry" />
        </mxCell>
        <mxCell id="TfQ_goBXf6NmOeumgvEF-1" value="Susceptible" style="rounded=0;whiteSpace=wrap;html=1;fillColor=#fff2cc;strokeColor=#d6b656;" vertex="1" parent="1">
          <mxGeometry x="170" y="320" width="120" height="60" as="geometry" />
        </mxCell>
        <mxCell id="TfQ_goBXf6NmOeumgvEF-2" value="Infectado" style="rounded=0;whiteSpace=wrap;html=1;fillColor=#f8cecc;strokeColor=#b85450;" vertex="1" parent="1">
          <mxGeometry x="410" y="320" width="120" height="60" as="geometry" />
        </mxCell>
        <mxCell id="TfQ_goBXf6NmOeumgvEF-3" value="Recuperado o inmune" style="rounded=0;whiteSpace=wrap;html=1;fillColor=#d5e8d4;strokeColor=#82b366;" vertex="1" parent="1">
          <mxGeometry x="630" y="320" width="120" height="60" as="geometry" />
        </mxCell>
        <mxCell id="TfQ_goBXf6NmOeumgvEF-4" value="" style="endArrow=classic;html=1;strokeWidth=2;entryX=0;entryY=0.5;entryDx=0;entryDy=0;" edge="1" parent="1" target="TfQ_goBXf6NmOeumgvEF-2">
          <mxGeometry width="50" height="50" relative="1" as="geometry">
            <mxPoint x="290" y="349.5" as="sourcePoint" />
            <mxPoint x="360" y="349.5" as="targetPoint" />
            <Array as="points">
              <mxPoint x="330" y="349.5" />
            </Array>
          </mxGeometry>
        </mxCell>
        <mxCell id="TfQ_goBXf6NmOeumgvEF-7" value="" style="endArrow=classic;html=1;strokeWidth=2;entryX=0;entryY=0.65;entryDx=0;entryDy=0;entryPerimeter=0;" edge="1" parent="1" target="TfQ_goBXf6NmOeumgvEF-3">
          <mxGeometry width="50" height="50" relative="1" as="geometry">
            <mxPoint x="530" y="360" as="sourcePoint" />
            <mxPoint x="620" y="357" as="targetPoint" />
          </mxGeometry>
        </mxCell>
        <mxCell id="TfQ_goBXf6NmOeumgvEF-8" value="SIR" style="text;html=1;strokeColor=none;fillColor=none;align=center;verticalAlign=middle;whiteSpace=wrap;rounded=0;" vertex="1" parent="1">
          <mxGeometry x="450" y="410" width="40" height="20" as="geometry" />
        </mxCell>
        <mxCell id="TfQ_goBXf6NmOeumgvEF-9" value="Susceptibles" style="rounded=0;whiteSpace=wrap;html=1;fillColor=#fff2cc;strokeColor=#d6b656;" vertex="1" parent="1">
          <mxGeometry x="170" y="440" width="120" height="60" as="geometry" />
        </mxCell>
        <mxCell id="TfQ_goBXf6NmOeumgvEF-10" value="Infectado" style="rounded=0;whiteSpace=wrap;html=1;fillColor=#f8cecc;strokeColor=#b85450;" vertex="1" parent="1">
          <mxGeometry x="414" y="440" width="120" height="60" as="geometry" />
        </mxCell>
        <mxCell id="TfQ_goBXf6NmOeumgvEF-11" value="Recuperado o inmune" style="rounded=0;whiteSpace=wrap;html=1;fillColor=#d5e8d4;strokeColor=#82b366;" vertex="1" parent="1">
          <mxGeometry x="630" y="440" width="120" height="60" as="geometry" />
        </mxCell>
        <mxCell id="TfQ_goBXf6NmOeumgvEF-13" value="" style="endArrow=classic;html=1;strokeWidth=2;entryX=0;entryY=0.5;entryDx=0;entryDy=0;exitX=1;exitY=0.5;exitDx=0;exitDy=0;" edge="1" parent="1">
          <mxGeometry width="50" height="50" relative="1" as="geometry">
            <mxPoint x="290" y="478" as="sourcePoint" />
            <mxPoint x="414" y="478" as="targetPoint" />
            <Array as="points">
              <mxPoint x="360" y="478" />
              <mxPoint x="350" y="478" />
            </Array>
          </mxGeometry>
        </mxCell>
        <mxCell id="TfQ_goBXf6NmOeumgvEF-14" value="" style="endArrow=classic;html=1;strokeWidth=2;entryX=-0.017;entryY=0.633;entryDx=0;entryDy=0;entryPerimeter=0;" edge="1" parent="1" target="TfQ_goBXf6NmOeumgvEF-11">
          <mxGeometry width="50" height="50" relative="1" as="geometry">
            <mxPoint x="539" y="478" as="sourcePoint" />
            <mxPoint x="609" y="478" as="targetPoint" />
            <Array as="points">
              <mxPoint x="579" y="478" />
              <mxPoint x="569" y="478" />
            </Array>
          </mxGeometry>
        </mxCell>
        <mxCell id="TfQ_goBXf6NmOeumgvEF-18" value="" style="endArrow=classic;html=1;entryX=0.575;entryY=1.067;entryDx=0;entryDy=0;entryPerimeter=0;" edge="1" parent="1" target="TfQ_goBXf6NmOeumgvEF-9">
          <mxGeometry width="50" height="50" relative="1" as="geometry">
            <mxPoint x="700.5" y="505" as="sourcePoint" />
            <mxPoint x="480" y="508" as="targetPoint" />
            <Array as="points">
              <mxPoint x="701" y="585" />
              <mxPoint x="590" y="585" />
              <mxPoint x="239" y="585" />
              <mxPoint x="240" y="560" />
            </Array>
          </mxGeometry>
        </mxCell>
        <mxCell id="TfQ_goBXf6NmOeumgvEF-19" value="SIRS" style="text;html=1;strokeColor=none;fillColor=none;align=center;verticalAlign=middle;whiteSpace=wrap;rounded=0;" vertex="1" parent="1">
          <mxGeometry x="435" y="533" width="50" height="20" as="geometry" />
        </mxCell>
      </root>
    </mxGraphModel>
  </diagram>
</mxfile>
